HIERARCHY
ROOT hip
{
	OFFSET 0.000000 0.000000 0.000000 
	CHANNELS 6 Xposition Yposition Zposition Xrotation Zrotation Yrotation
	JOINT abdomen
	{
		OFFSET 0.000000 3.402643 0.000000 
		CHANNELS 3 Xrotation Zrotation Yrotation
		JOINT chest
		{
			OFFSET 0.000000 8.438565 -0.680529 
			CHANNELS 3 Xrotation Zrotation Yrotation
			JOINT neck
			{
				OFFSET 0.000000 10.207942 -0.272212 
				CHANNELS 3 Xrotation Zrotation Yrotation
				JOINT head
				{
					OFFSET 0.000000 3.130431 0.000000 
					CHANNELS 3 Xrotation Zrotation Yrotation
					End Site
					{
						OFFSET 0.000000 3.130435 0.000000 
					}
				}
			}
			JOINT lCollar
			{
				OFFSET 3.470700 6.669187 -0.816635 
				CHANNELS 3 Yrotation Zrotation Xrotation
				JOINT lShldr
				{
					OFFSET 3.198488 0.000000 0.000000 
					CHANNELS 3 Zrotation Yrotation Xrotation
					JOINT lForeArm
					{
						OFFSET 10.139888 0.000000 0.000000 
						CHANNELS 3 Yrotation Zrotation Xrotation
						JOINT lHand
						{
							OFFSET 8.370511 0.000000 0.000000 
							CHANNELS 3 Zrotation Yrotation Xrotation
							End Site
							{
								OFFSET 4.083176 0.000000 0.000000 
							}
						}
					}
				}
			}
			JOINT rCollar
			{
				OFFSET -3.470700 6.669187 -0.816635 
				CHANNELS 3 Yrotation Zrotation Xrotation
				JOINT rShldr
				{
					OFFSET -3.198488 0.000000 0.000000 
					CHANNELS 3 Zrotation Yrotation Xrotation
					JOINT rForeArm
					{
						OFFSET -10.139888 0.000000 0.000000 
						CHANNELS 3 Yrotation Zrotation Xrotation
						JOINT rHand
						{
							OFFSET -8.370511 0.000000 0.000000 
							CHANNELS 3 Zrotation Yrotation Xrotation
							End Site
							{
								OFFSET -4.083176 0.000000 0.000000 
							}
						}
					}
				}
			}
		}
	}
	JOINT lThigh
	{
		OFFSET 5.308129 -1.633274 1.361059 
		CHANNELS 3 Xrotation Zrotation Yrotation
		JOINT lShin
		{
			OFFSET -2.041588 -20.007561 0.000000 
			CHANNELS 3 Xrotation Zrotation Yrotation
			JOINT lFoot
			{
				OFFSET 0.000000 -19.190928 -1.224953 
				CHANNELS 3 Xrotation Yrotation Zrotation
				End Site
				{
					OFFSET 0.000000 -2.449906 4.627600 
				}
			}
		}
	}
	JOINT rThigh
	{
		OFFSET -5.308129 -1.633274 1.361059 
		CHANNELS 3 Xrotation Zrotation Yrotation
		JOINT rShin
		{
			OFFSET 2.041588 -20.007561 0.000000 
			CHANNELS 3 Xrotation Zrotation Yrotation
			JOINT rFoot
			{
				OFFSET 0.000000 -19.190928 -1.224953 
				CHANNELS 3 Xrotation Yrotation Zrotation
				End Site
				{
					OFFSET 0.000000 -2.449906 4.627600 
				}
			}
		}
	}
}
MOTION
Frames: 6
Frame Time: 0.033333
14.840185 50.092525 88.279686 -1.425781 5.595703 -1.376001 18.634382 -15.827628 4.803376 -20.566406 8.144533 8.593751 51.553619 8.070152 2.616707 -60.947266 -3.613281 -13.291018 2.000000 -2.000000 0.000000 -94.169922 27.255859 -50.434982 -70.225632 -0.654425 -2.383823 28.071268 25.615686 20.340269 -2.000000 2.000000 0.000000 68.730469 -20.146482 11.129450 105.817131 -0.804972 -3.025825 -42.846222 -18.566420 9.690676 -8.173788 -3.105056 21.527039 -3.639101 -6.300286 0.139458 9.720682 16.369732 5.935534 29.890512 -8.506553 -21.730944 12.052937 5.688063 1.179722 9.692552 -8.835610 -8.935906 
15.221821 50.762993 90.231728 -1.767578 5.966797 -0.908203 18.086439 -15.091588 4.144611 -20.205080 8.134767 8.652345 51.553619 8.070152 2.616707 -59.453121 -4.609375 -13.086722 2.000000 -2.000000 0.000000 -94.296875 26.835938 -50.503403 -70.063660 -0.633677 -2.531707 28.006933 25.828852 20.182526 -2.000000 2.000000 0.000000 68.056641 -21.113281 12.031250 105.817131 -0.804972 -3.025825 -44.339573 -18.529528 9.437334 -7.392344 -3.446783 21.516098 1.189098 -5.941102 -0.399482 7.704154 15.409223 3.777756 27.723438 -11.485039 -21.348791 16.779568 5.170412 1.765299 27.360743 -7.697391 -9.766348 
15.708183 51.358135 92.241508 -1.972656 6.494141 -0.048828 18.086765 -14.261696 3.291663 -20.029297 8.125000 8.496094 51.553619 8.070152 2.616707 -58.476563 -5.595703 -12.715797 2.000000 -2.000000 0.000000 -95.234375 25.800779 -51.558250 -70.394714 -0.856209 -2.489424 28.114292 26.300800 20.119217 -2.000000 2.000000 0.000000 66.962891 -21.513672 12.734375 105.803665 -0.637386 -2.879238 -45.262939 -18.959009 9.015532 -5.559383 -4.335414 20.221821 2.938525 -6.347805 -0.578809 7.070301 15.254471 2.658434 21.772537 -13.914997 -20.083626 24.877268 4.663015 2.334346 32.498043 -9.976727 -10.104934 
16.281561 51.968342 94.204643 -2.128906 6.650391 0.791016 18.378311 -13.182561 1.971258 -20.205080 8.134767 8.300782 51.553619 8.070152 2.616707 -57.685551 -6.718749 -11.972659 2.000000 -2.000000 0.000000 -95.107422 25.117188 -51.167732 -70.392418 -1.007662 -2.402385 27.750675 26.095354 20.057661 -2.000000 2.000000 0.000000 65.517578 -20.947266 14.176199 105.817131 -0.804972 -3.025825 -45.950855 -19.672379 8.895756 -2.620365 -5.718519 18.853775 2.252291 -6.145747 -0.358793 8.389303 14.794463 1.082605 13.978228 -16.508881 -17.424299 34.908600 4.130826 3.209015 31.963037 -13.607156 -7.578277 
17.115074 52.201870 96.228889 -2.314453 6.826172 1.826172 19.210121 -11.757147 0.396615 -20.371094 8.486328 7.802735 51.553619 8.070152 2.616707 -57.460941 -7.958984 -10.664063 2.000000 -2.000000 0.000000 -94.003906 24.033203 -49.287106 -70.045715 -0.998361 -2.578938 27.836365 25.531036 19.760195 -2.000000 2.000000 0.000000 63.652344 -19.824219 15.673827 105.983818 -0.628357 -3.035166 -46.246239 -20.525694 8.660650 0.264730 -6.637187 17.784237 1.717778 -6.347733 -0.445464 6.347811 14.754981 0.149483 5.046877 -18.532946 -14.209942 44.948944 3.443184 3.808439 28.919394 -17.277201 -3.490884 
18.044405 52.390209 98.198769 -2.314453 6.484375 3.780400 20.081261 -10.150915 -1.459526 -20.898438 8.681642 7.042490 51.553619 8.070152 2.616707 -57.568367 -9.013671 -9.472657 2.000000 -2.000000 0.000000 -93.125000 23.056641 -47.759850 -70.064178 -0.664057 -2.549496 27.713959 24.638597 19.369768 -2.000000 2.000000 0.000000 61.884766 -18.466797 17.587891 106.175827 -0.995286 -2.948829 -46.004517 -21.923090 8.427615 3.270996 -7.332258 16.134666 0.506214 -6.342353 -0.313098 4.808398 13.969926 -0.040447 -2.813345 -19.835117 -11.836319 52.628403 2.759699 4.454210 24.683458 -20.753275 -0.321218 
